<svg xmlns="http://www.w3.org/2000/svg" xmlns:xlink="http://www.w3.org/1999/xlink" width="500" zoomAndPan="magnify" viewBox="0 0 375 374.999991" height="500" preserveAspectRatio="xMidYMid meet" version="1.0"><defs><g/><clipPath id="0c6dccf12f"><path d="M 84.789062 83.480469 L 290.289062 83.480469 L 290.289062 216.980469 L 84.789062 216.980469 Z M 84.789062 83.480469 " clip-rule="nonzero"/></clipPath><clipPath id="0e4b6212d1"><path d="M 94 183.074219 L 281 183.074219 L 281 217 L 94 217 Z M 94 183.074219 " clip-rule="nonzero"/></clipPath><clipPath id="305b2c73cf"><path d="M 60.027344 225 L 315.027344 225 L 315.027344 273.824219 L 60.027344 273.824219 Z M 60.027344 225 " clip-rule="nonzero"/></clipPath><clipPath id="001607b5f5"><path d="M 168.359375 281.0625 L 175.109375 281.0625 L 175.109375 287.8125 L 168.359375 287.8125 Z M 168.359375 281.0625 " clip-rule="nonzero"/></clipPath><clipPath id="f85866740e"><path d="M 199.765625 281.0625 L 206.515625 281.0625 L 206.515625 287.8125 L 199.765625 287.8125 Z M 199.765625 281.0625 " clip-rule="nonzero"/></clipPath><clipPath id="12d1aad395"><path d="M 181.789062 281.0625 L 193.039062 281.0625 L 193.039062 292.3125 L 181.789062 292.3125 Z M 181.789062 281.0625 " clip-rule="nonzero"/></clipPath></defs><g clip-path="url(#0c6dccf12f)"><path fill="#ffffff" d="M 285.195312 99.820312 C 279.144531 88.308594 270.136719 81.121094 264.253906 84.195312 C 263.6875 84.488281 261.453125 85.65625 260.875 85.960938 C 259.769531 86.550781 258.890625 87.378906 258.230469 88.4375 C 257.21875 88.464844 256.265625 88.710938 255.371094 89.175781 L 251.917969 90.980469 C 249.089844 92.460938 247.539062 95.761719 247.269531 100.003906 C 246.171875 99.835938 244.582031 100.652344 243.78125 101.234375 C 243.566406 101.386719 243.394531 101.582031 243.265625 101.8125 L 242.722656 102.777344 C 242.722656 102.777344 242.261719 102.699219 241.664062 102.652344 C 241.167969 102.617188 240.710938 102.722656 240.28125 102.972656 L 237.722656 104.417969 C 237.273438 104.933594 236.921875 105.511719 236.667969 106.152344 C 236.109375 105.980469 235.539062 105.894531 234.953125 105.890625 C 234.703125 105.90625 234.476562 105.980469 234.265625 106.113281 L 232.34375 107.335938 C 232.058594 107.519531 231.84375 107.765625 231.703125 108.074219 L 231.636719 108.222656 C 231.191406 109.195312 230.96875 110.21875 230.960938 111.289062 C 230.960938 111.789062 230.960938 112.308594 230.960938 112.835938 C 230.0625 112.25 229.109375 111.777344 228.097656 111.414062 C 228.050781 112.085938 227.964844 112.753906 227.847656 113.417969 C 228.988281 113.785156 230.039062 114.332031 230.992188 115.058594 C 231.019531 117.144531 231.203125 119.214844 231.542969 121.269531 C 231.625 121.917969 231.910156 122.457031 232.402344 122.886719 L 230.914062 123.730469 C 230.113281 124.148438 230.289062 126.058594 231.304688 127.996094 C 232.316406 129.929688 233.796875 131.160156 234.597656 130.742188 L 237.265625 129.460938 C 239.160156 134.210938 239.566406 138.3125 238.195312 139.761719 C 238.167969 139.792969 238.160156 139.824219 238.183594 139.863281 C 238.203125 139.898438 238.234375 139.910156 238.273438 139.902344 C 238.441406 139.863281 238.601562 139.804688 238.753906 139.726562 C 240.984375 138.558594 240.964844 133.949219 238.960938 128.652344 L 240.164062 128.078125 C 242.546875 134.429688 242.359375 140.125 239.382812 141.679688 C 235.816406 143.542969 229.621094 138.761719 225.542969 131 C 224.328125 128.71875 223.410156 126.324219 222.785156 123.8125 C 222.78125 123.800781 222.777344 123.792969 222.765625 123.792969 C 222.753906 123.789062 222.742188 123.792969 222.734375 123.800781 C 220.640625 126.1875 218.253906 128.230469 215.570312 129.933594 C 216.125 131.71875 216.835938 133.441406 217.710938 135.097656 C 220.621094 140.640625 224.847656 144.6875 228.953125 146.375 C 228.996094 146.394531 229.011719 146.425781 229.007812 146.46875 C 229 146.515625 228.972656 146.539062 228.929688 146.542969 C 225.164062 146.945312 220.054688 142.980469 216.527344 136.710938 C 216.515625 136.683594 216.492188 136.675781 216.464844 136.683594 C 216.4375 136.691406 216.425781 136.710938 216.429688 136.738281 C 216.621094 137.851562 216.96875 141.484375 213.65625 141.707031 C 212.464844 141.75 211.304688 141.582031 210.171875 141.207031 C 210.148438 141.203125 210.125 141.210938 210.109375 141.230469 C 210.09375 141.25 210.089844 141.273438 210.101562 141.296875 C 214.96875 149.230469 222.679688 153.363281 227.964844 150.605469 L 231.140625 148.941406 C 231.945312 148.511719 232.640625 147.949219 233.21875 147.246094 C 234.359375 147.230469 235.433594 146.960938 236.445312 146.4375 C 236.980469 146.15625 239.035156 145.085938 239.558594 144.8125 C 244.113281 142.433594 244.769531 135.386719 241.988281 127.761719 C 241.972656 127.722656 241.984375 127.6875 242.023438 127.667969 C 242.0625 127.648438 242.097656 127.65625 242.125 127.691406 C 250.183594 138.316406 244.859375 147.683594 244.054688 156.507812 C 237.472656 154.402344 230.765625 157.5 230.765625 157.5 C 222.441406 150.070312 211.640625 153.660156 211.640625 153.660156 C 210.648438 150.703125 207.445312 149.214844 205.578125 144.554688 C 205.5625 144.515625 205.53125 144.503906 205.492188 144.519531 C 201.699219 145.957031 199.613281 149.578125 198.734375 151.519531 C 198.691406 151.613281 198.621094 151.644531 198.519531 151.613281 C 198.421875 151.582031 198.378906 151.515625 198.402344 151.414062 C 199.679688 143.9375 205.554688 142.386719 205.554688 142.386719 C 206.015625 140.503906 206.222656 138.59375 206.179688 136.65625 C 206.179688 136.621094 206.195312 136.59375 206.230469 136.582031 C 206.265625 136.566406 206.296875 136.574219 206.320312 136.601562 C 208.089844 138.433594 211.753906 139.664062 213.675781 139.980469 C 213.84375 140.007812 214.003906 139.992188 214.164062 139.9375 C 214.324219 139.882812 214.460938 139.796875 214.578125 139.671875 C 214.691406 139.550781 214.769531 139.40625 214.8125 139.242188 C 214.855469 139.082031 214.855469 138.917969 214.816406 138.753906 C 214.070312 135.625 212.765625 132.746094 210.894531 130.121094 C 210.894531 130.121094 226.046875 123.433594 226.046875 109.929688 C 226.046875 98.847656 216.222656 93.515625 218.433594 85.175781 C 218.441406 85.148438 218.4375 85.125 218.414062 85.105469 C 218.390625 85.085938 218.363281 85.085938 218.339844 85.101562 C 214.484375 87.15625 213.746094 89.980469 213.484375 92.957031 C 213.128906 96.921875 215.738281 100.269531 215.738281 104.605469 C 215.738281 113.027344 208.164062 115.503906 208.164062 115.503906 C 207.042969 113.398438 204.3125 113.894531 202.945312 115.503906 C 198.472656 112.78125 191.519531 112.90625 187.542969 115.753906 C 183.566406 112.90625 176.613281 112.785156 172.140625 115.503906 C 170.773438 113.894531 168.042969 113.398438 166.925781 115.503906 C 166.925781 115.503906 159.347656 113.027344 159.347656 104.605469 C 159.347656 100.269531 161.957031 96.921875 161.605469 92.957031 C 161.339844 89.980469 160.601562 87.15625 156.75 85.101562 C 156.726562 85.082031 156.699219 85.082031 156.675781 85.101562 C 156.648438 85.121094 156.644531 85.148438 156.65625 85.175781 C 158.867188 93.515625 149.039062 98.847656 149.039062 109.929688 C 149.039062 123.433594 164.195312 130.121094 164.195312 130.121094 C 162.324219 132.746094 161.019531 135.625 160.273438 138.753906 C 160.234375 138.917969 160.234375 139.082031 160.277344 139.242188 C 160.320312 139.40625 160.398438 139.546875 160.511719 139.671875 C 160.625 139.792969 160.761719 139.882812 160.921875 139.9375 C 161.082031 139.992188 161.246094 140.007812 161.410156 139.980469 C 163.335938 139.660156 166.996094 138.429688 168.769531 136.601562 C 168.792969 136.574219 168.824219 136.566406 168.859375 136.582031 C 168.894531 136.59375 168.910156 136.621094 168.910156 136.65625 C 168.867188 138.59375 169.074219 140.503906 169.535156 142.386719 C 169.535156 142.386719 175.410156 143.9375 176.6875 151.414062 C 176.707031 151.515625 176.667969 151.582031 176.570312 151.613281 C 176.46875 151.644531 176.398438 151.613281 176.355469 151.519531 C 175.480469 149.578125 173.390625 145.957031 169.597656 144.519531 C 169.558594 144.5 169.527344 144.515625 169.511719 144.554688 C 167.644531 149.214844 164.4375 150.703125 163.449219 153.660156 C 163.449219 153.660156 152.644531 150.070312 144.324219 157.5 C 144.324219 157.5 137.617188 154.40625 131.03125 156.511719 C 130.21875 147.683594 124.898438 138.316406 132.960938 127.691406 C 132.988281 127.65625 133.019531 127.648438 133.058594 127.671875 C 133.101562 127.691406 133.113281 127.722656 133.097656 127.765625 C 130.320312 135.386719 130.972656 142.433594 135.523438 144.8125 C 136.046875 145.085938 138.101562 146.15625 138.636719 146.4375 C 139.648438 146.960938 140.726562 147.230469 141.867188 147.246094 C 142.445312 147.949219 143.136719 148.515625 143.941406 148.941406 L 147.121094 150.605469 C 152.402344 153.367188 160.117188 149.230469 164.980469 141.296875 C 164.992188 141.273438 164.988281 141.253906 164.972656 141.230469 C 164.957031 141.210938 164.9375 141.203125 164.910156 141.210938 C 163.78125 141.585938 162.617188 141.75 161.425781 141.710938 C 158.113281 141.488281 158.46875 137.855469 158.652344 136.742188 C 158.660156 136.710938 158.648438 136.695312 158.617188 136.683594 C 158.589844 136.675781 158.570312 136.683594 158.554688 136.710938 C 155.03125 142.980469 149.917969 146.949219 146.15625 146.546875 C 146.109375 146.539062 146.082031 146.515625 146.078125 146.472656 C 146.070312 146.425781 146.085938 146.394531 146.128906 146.378906 C 150.238281 144.6875 154.460938 140.640625 157.375 135.101562 C 158.246094 133.445312 158.960938 131.722656 159.511719 129.933594 C 156.828125 128.234375 154.441406 126.1875 152.351562 123.804688 C 152.34375 123.792969 152.332031 123.789062 152.320312 123.792969 C 152.308594 123.796875 152.300781 123.804688 152.296875 123.816406 C 151.675781 126.324219 150.757812 128.71875 149.542969 131.003906 C 145.464844 138.761719 139.265625 143.542969 135.703125 141.683594 C 132.726562 140.125 132.535156 134.429688 134.921875 128.078125 L 136.121094 128.652344 C 134.121094 133.949219 134.097656 138.558594 136.328125 139.726562 C 136.484375 139.808594 136.644531 139.867188 136.808594 139.902344 C 136.851562 139.914062 136.882812 139.898438 136.902344 139.863281 C 136.921875 139.828125 136.917969 139.792969 136.886719 139.765625 C 135.515625 138.3125 135.921875 134.210938 137.816406 129.464844 L 140.484375 130.742188 C 141.289062 131.160156 142.765625 129.933594 143.78125 127.996094 C 144.800781 126.058594 144.972656 124.152344 144.167969 123.730469 L 142.679688 122.882812 C 143.171875 122.453125 143.457031 121.914062 143.539062 121.265625 C 143.875 119.210938 144.058594 117.140625 144.089844 115.054688 C 145.042969 114.328125 146.089844 113.78125 147.230469 113.414062 C 147.117188 112.761719 147.035156 112.101562 146.980469 111.414062 C 145.972656 111.773438 145.019531 112.246094 144.121094 112.832031 C 144.121094 112.304688 144.121094 111.785156 144.121094 111.285156 C 144.113281 110.214844 143.886719 109.191406 143.445312 108.21875 L 143.375 108.074219 C 143.234375 107.765625 143.023438 107.519531 142.738281 107.335938 L 140.816406 106.113281 C 140.609375 105.980469 140.378906 105.90625 140.128906 105.894531 C 139.546875 105.894531 138.972656 105.980469 138.414062 106.15625 C 138.164062 105.515625 137.8125 104.9375 137.359375 104.421875 L 134.800781 102.976562 C 134.375 102.726562 133.914062 102.621094 133.421875 102.65625 C 132.820312 102.699219 132.363281 102.78125 132.363281 102.78125 L 131.816406 101.816406 C 131.6875 101.585938 131.515625 101.390625 131.304688 101.234375 C 130.5 100.65625 128.914062 99.839844 127.8125 100.007812 C 127.542969 95.765625 125.992188 92.460938 123.164062 90.984375 L 119.710938 89.175781 C 118.8125 88.710938 117.859375 88.464844 116.851562 88.4375 C 116.191406 87.378906 115.308594 86.550781 114.207031 85.960938 C 113.625 85.65625 111.394531 84.488281 110.824219 84.195312 C 104.945312 81.121094 95.933594 88.308594 89.886719 99.820312 C 83.835938 111.335938 83.035156 122.816406 88.917969 125.886719 C 89.484375 126.183594 91.71875 127.351562 92.300781 127.65625 C 93.414062 128.222656 94.597656 128.476562 95.84375 128.414062 C 96.441406 129.226562 97.1875 129.867188 98.078125 130.339844 L 101.527344 132.144531 C 107.15625 135.085938 115.871094 129.777344 121.886719 120.117188 C 121.929688 120.050781 121.988281 120.03125 122.0625 120.066406 C 122.136719 120.101562 122.160156 120.160156 122.132812 120.238281 C 121.011719 123.414062 118.847656 127.933594 113.695312 132.882812 C 112.148438 144.421875 99.996094 161.132812 108.863281 176.414062 C 108.878906 176.445312 108.902344 176.453125 108.933594 176.441406 C 108.964844 176.429688 108.976562 176.40625 108.972656 176.375 C 108.65625 174.621094 107.386719 166.1875 110.546875 159.917969 C 110.5625 159.886719 110.585938 159.878906 110.617188 159.890625 C 110.648438 159.902344 110.660156 159.921875 110.652344 159.957031 C 110.25 161.746094 109.097656 168.691406 111.71875 181.265625 C 111.808594 181.683594 111.960938 182.070312 112.183594 182.433594 C 112.402344 182.796875 112.679688 183.113281 113.007812 183.382812 C 113.339844 183.652344 113.707031 183.855469 114.105469 184 C 114.507812 184.144531 114.921875 184.214844 115.347656 184.214844 L 115.375 184.214844 C 117.574219 184.21875 119.550781 184.878906 121.308594 186.195312 C 125.09375 189.035156 132.574219 192.703125 141.140625 190.503906 C 141.261719 190.472656 141.34375 190.515625 141.382812 190.636719 C 143.554688 196.945312 146.722656 202.707031 150.890625 207.921875 C 150.890625 207.921875 151.109375 209.121094 151.519531 211.054688 C 160.875 213.367188 186.667969 216.984375 187.53125 216.984375 C 188.394531 216.984375 214.1875 213.367188 223.542969 211.054688 C 223.953125 209.121094 224.171875 207.921875 224.171875 207.921875 C 228.339844 202.707031 231.507812 196.945312 233.675781 190.636719 C 233.71875 190.515625 233.800781 190.472656 233.921875 190.503906 C 242.488281 192.699219 249.96875 189.035156 253.75 186.195312 C 255.507812 184.878906 257.484375 184.21875 259.683594 184.214844 L 259.710938 184.214844 C 260.136719 184.214844 260.550781 184.144531 260.949219 184 C 261.351562 183.859375 261.714844 183.652344 262.046875 183.386719 C 262.375 183.117188 262.652344 182.804688 262.875 182.441406 C 263.09375 182.078125 263.25 181.691406 263.335938 181.273438 C 265.960938 168.699219 264.808594 161.753906 264.402344 159.957031 C 264.398438 159.925781 264.410156 159.902344 264.441406 159.890625 C 264.472656 159.878906 264.496094 159.890625 264.511719 159.917969 C 267.667969 166.191406 266.398438 174.625 266.085938 176.375 C 266.082031 176.410156 266.09375 176.429688 266.125 176.441406 C 266.15625 176.449219 266.179688 176.441406 266.195312 176.414062 C 275.0625 161.132812 262.910156 144.421875 261.363281 132.882812 C 256.230469 127.957031 254.0625 123.453125 252.9375 120.28125 C 252.90625 120.199219 252.933594 120.140625 253.007812 120.105469 C 253.085938 120.066406 253.148438 120.085938 253.195312 120.15625 C 259.207031 129.792969 267.910156 135.082031 273.53125 132.144531 L 276.980469 130.339844 C 277.875 129.871094 278.617188 129.226562 279.21875 128.414062 C 280.464844 128.476562 281.648438 128.222656 282.761719 127.65625 C 283.34375 127.351562 285.578125 126.1875 286.144531 125.886719 C 292.046875 122.816406 291.246094 111.335938 285.195312 99.820312 Z M 207.863281 119.203125 C 213.640625 117.304688 217.84375 111.304688 217.753906 105.660156 C 217.648438 99.207031 214.957031 96.644531 214.898438 92.957031 C 214.875 91.449219 215.308594 89.058594 216.96875 87.648438 C 216.992188 87.632812 217.015625 87.628906 217.039062 87.644531 C 217.0625 87.660156 217.070312 87.679688 217.0625 87.707031 C 215.644531 94.601562 223.796875 100.257812 222.59375 110.398438 C 221.242188 121.8125 210.152344 124.574219 207.96875 125.007812 C 207.90625 125.023438 207.878906 124.933594 207.9375 124.902344 C 219.417969 118.949219 220.003906 111.046875 220 109.40625 C 219.996094 109.371094 219.980469 109.355469 219.945312 109.351562 C 219.914062 109.351562 219.894531 109.363281 219.886719 109.394531 C 216.800781 118.421875 209.589844 119.246094 207.875 119.3125 C 207.84375 119.3125 207.824219 119.296875 207.820312 119.265625 C 207.816406 119.234375 207.832031 119.214844 207.863281 119.203125 Z M 208 131.121094 C 210.007812 131.960938 212.003906 134.734375 212.460938 137.058594 C 212.472656 137.140625 212.449219 137.210938 212.390625 137.269531 C 212.332031 137.324219 212.261719 137.347656 212.179688 137.332031 C 208.820312 136.710938 206.566406 134.734375 206.019531 132.835938 C 205.953125 132.566406 205.960938 132.300781 206.042969 132.039062 C 206.125 131.773438 206.273438 131.550781 206.480469 131.371094 C 206.691406 131.191406 206.933594 131.078125 207.207031 131.03125 C 207.480469 130.988281 207.742188 131.015625 208 131.121094 Z M 152.480469 110.398438 C 151.28125 100.261719 159.429688 94.601562 158.011719 87.707031 C 158.007812 87.679688 158.015625 87.660156 158.039062 87.644531 C 158.0625 87.628906 158.085938 87.632812 158.109375 87.648438 C 159.769531 89.058594 160.203125 91.449219 160.179688 92.957031 C 160.121094 96.644531 157.429688 99.207031 157.324219 105.660156 C 157.234375 111.304688 161.4375 117.304688 167.214844 119.203125 C 167.246094 119.214844 167.257812 119.234375 167.253906 119.265625 C 167.25 119.296875 167.234375 119.3125 167.199219 119.3125 C 165.484375 119.246094 158.277344 118.421875 155.1875 109.394531 C 155.167969 109.332031 155.078125 109.335938 155.078125 109.40625 C 155.070312 111.046875 155.660156 118.949219 167.136719 124.902344 C 167.167969 124.914062 167.179688 124.9375 167.167969 124.96875 C 167.160156 125 167.140625 125.015625 167.105469 125.007812 C 164.925781 124.574219 153.835938 121.8125 152.480469 110.398438 Z M 169.058594 132.835938 C 168.511719 134.734375 166.257812 136.710938 162.898438 137.332031 C 162.820312 137.347656 162.75 137.324219 162.6875 137.269531 C 162.628906 137.210938 162.605469 137.140625 162.617188 137.058594 C 163.074219 134.734375 165.070312 131.960938 167.078125 131.121094 C 167.335938 131.015625 167.601562 130.988281 167.875 131.03125 C 168.148438 131.078125 168.386719 131.1875 168.597656 131.371094 C 168.808594 131.550781 168.953125 131.773438 169.035156 132.039062 C 169.121094 132.300781 169.128906 132.566406 169.058594 132.835938 Z M 89.335938 122.050781 C 85.460938 120.023438 86.476562 110.476562 91.605469 100.722656 C 96.734375 90.964844 104.027344 84.695312 107.902344 86.722656 C 111.773438 88.746094 110.757812 98.296875 105.632812 108.054688 C 100.503906 117.808594 93.207031 124.074219 89.335938 122.050781 Z M 115.890625 113.414062 C 111.390625 121.980469 104.914062 127.675781 100.539062 127.261719 C 100.507812 127.257812 100.492188 127.242188 100.488281 127.214844 C 100.484375 127.1875 100.492188 127.164062 100.519531 127.152344 C 105.308594 124.851562 110.433594 119.570312 114.144531 112.503906 C 117.855469 105.433594 119.300781 98.230469 118.472656 92.992188 C 118.46875 92.960938 118.480469 92.941406 118.507812 92.929688 C 118.53125 92.917969 118.554688 92.921875 118.574219 92.945312 C 121.402344 96.296875 120.390625 104.851562 115.890625 113.414062 Z M 244.386719 115.042969 C 244.292969 115.035156 244.234375 114.988281 244.210938 114.902344 C 243.839844 113.707031 243.59375 112.484375 243.472656 111.238281 C 243.457031 111.101562 243.394531 110.988281 243.292969 110.898438 C 243.1875 110.808594 243.066406 110.761719 242.929688 110.761719 C 242.792969 110.761719 242.671875 110.804688 242.566406 110.894531 C 242.460938 110.984375 242.398438 111.097656 242.378906 111.234375 C 242.230469 112.761719 242.207031 114.289062 242.316406 115.820312 C 242.320312 115.859375 242.3125 115.894531 242.292969 115.929688 C 241.332031 117.742188 238.21875 118.289062 237.972656 117.734375 C 237.644531 116.144531 237.425781 114.539062 237.316406 112.921875 C 237.25 112.378906 236.363281 112.484375 236.25 113.015625 C 235.910156 114.652344 236.046875 119.4375 236.046875 119.4375 C 235.449219 120.386719 234.039062 120.691406 233.515625 120.773438 C 233.382812 120.796875 233.304688 120.742188 233.289062 120.605469 C 232.773438 117.3125 232.597656 114.003906 232.757812 110.671875 C 232.84375 110.035156 233.191406 109.125 234.898438 108.324219 C 235.753906 108.359375 236.59375 108.503906 237.414062 108.753906 C 237.414062 108.753906 237.921875 107.410156 238.074219 107.191406 C 238.898438 106.132812 239.96875 105.472656 241.289062 105.214844 C 241.742188 105.113281 243.6875 105.714844 243.6875 105.714844 L 244.429688 104.046875 C 244.746094 103.632812 245.132812 103.300781 245.589844 103.058594 C 246.050781 102.8125 246.539062 102.675781 247.058594 102.644531 C 247.195312 102.632812 247.265625 102.691406 247.273438 102.828125 C 247.4375 105.304688 247.890625 107.730469 248.625 110.105469 C 248.691406 110.960938 248.660156 111.808594 248.53125 112.652344 C 247.898438 113.996094 245.113281 115.074219 244.382812 115.042969 Z M 202.886719 134.683594 C 203.183594 135.863281 203.148438 137.9375 202.378906 138.910156 C 202.367188 138.925781 202.363281 138.941406 202.371094 138.960938 C 202.378906 138.980469 202.394531 138.992188 202.414062 138.996094 C 203.132812 139.101562 203.816406 139 204.472656 138.691406 C 204.496094 138.679688 204.519531 138.683594 204.539062 138.699219 C 204.558594 138.71875 204.5625 138.738281 204.554688 138.765625 C 204.027344 139.820312 201.285156 142.542969 197.128906 140.890625 C 197.101562 140.878906 197.089844 140.855469 197.09375 140.824219 C 197.097656 140.792969 197.117188 140.777344 197.148438 140.773438 C 198.226562 140.71875 201.929688 140.132812 202.703125 134.691406 C 202.710938 134.640625 202.738281 134.613281 202.792969 134.613281 C 202.84375 134.609375 202.875 134.632812 202.886719 134.683594 Z M 191.515625 160.351562 C 191.515625 160.5625 191.582031 160.753906 191.714844 160.921875 C 191.800781 161.027344 191.855469 161.148438 191.882812 161.28125 C 191.914062 161.417969 191.910156 161.550781 191.871094 161.683594 C 191.835938 161.816406 191.769531 161.933594 191.675781 162.035156 C 191.585938 162.136719 191.472656 162.210938 191.34375 162.257812 C 190.113281 162.679688 188.84375 162.890625 187.539062 162.890625 C 186.238281 162.890625 184.96875 162.679688 183.734375 162.257812 C 183.605469 162.210938 183.496094 162.136719 183.402344 162.035156 C 183.308594 161.933594 183.242188 161.816406 183.207031 161.683594 C 183.171875 161.550781 183.167969 161.417969 183.195312 161.28125 C 183.222656 161.148438 183.28125 161.027344 183.367188 160.921875 C 183.496094 160.753906 183.5625 160.5625 183.5625 160.351562 C 183.5 157.933594 180.148438 158.304688 180.585938 160.289062 C 180.867188 161.585938 180.585938 161.898438 180.023438 161.898438 C 179.527344 161.898438 177.417969 159.480469 177.417969 158.675781 C 177.417969 157.941406 178.722656 157.316406 179.308594 155.320312 C 179.394531 155.105469 179.519531 154.917969 179.683594 154.757812 C 179.847656 154.59375 180.035156 154.472656 180.25 154.390625 C 180.46875 154.304688 180.691406 154.269531 180.921875 154.277344 C 181.152344 154.289062 181.371094 154.34375 181.578125 154.445312 C 183.476562 155.28125 185.464844 155.699219 187.539062 155.699219 C 189.613281 155.699219 191.601562 155.28125 193.5 154.445312 C 193.707031 154.34375 193.925781 154.289062 194.15625 154.277344 C 194.386719 154.269531 194.609375 154.304688 194.828125 154.386719 C 195.042969 154.472656 195.230469 154.59375 195.394531 154.757812 C 195.558594 154.917969 195.683594 155.105469 195.769531 155.320312 C 196.355469 157.316406 197.660156 157.941406 197.660156 158.675781 C 197.660156 159.480469 195.550781 161.898438 195.050781 161.898438 C 194.496094 161.898438 194.210938 161.585938 194.496094 160.289062 C 194.929688 158.304688 191.574219 157.933594 191.515625 160.351562 Z M 176.421875 138.113281 C 175.496094 137.746094 174.203125 136.582031 174.246094 133.832031 C 174.25 133.796875 174.269531 133.777344 174.304688 133.769531 C 175.710938 133.5625 177.023438 133.832031 178.234375 134.578125 C 179.722656 135.664062 179.621094 137.644531 180 138.734375 C 180.015625 138.777344 180.003906 138.8125 179.96875 138.835938 C 179.933594 138.863281 179.894531 138.863281 179.859375 138.839844 C 178.808594 138.085938 177.304688 138.464844 176.421875 138.113281 Z M 195.078125 138.734375 C 195.457031 137.640625 195.355469 135.664062 196.847656 134.578125 C 198.058594 133.832031 199.367188 133.5625 200.773438 133.769531 C 200.808594 133.777344 200.828125 133.796875 200.832031 133.832031 C 200.875 136.582031 199.582031 137.746094 198.65625 138.117188 C 197.773438 138.46875 196.269531 138.085938 195.21875 138.839844 C 195.183594 138.867188 195.148438 138.867188 195.109375 138.839844 C 195.074219 138.8125 195.0625 138.777344 195.078125 138.734375 Z M 173.246094 118.464844 C 174.011719 118.34375 174.78125 118.34375 175.546875 118.464844 C 176.316406 118.585938 177.042969 118.824219 177.738281 119.175781 C 178.429688 119.53125 179.046875 119.980469 179.59375 120.53125 C 180.140625 121.082031 180.589844 121.703125 180.9375 122.398438 C 180.953125 122.425781 180.976562 122.4375 181.007812 122.425781 C 181.039062 122.417969 181.050781 122.394531 181.046875 122.363281 C 180.5625 118.253906 176.832031 116.882812 175.773438 116.574219 C 175.726562 116.558594 175.707031 116.53125 175.703125 116.484375 C 175.703125 116.4375 175.722656 116.410156 175.765625 116.390625 C 182.15625 113.996094 185.839844 117.257812 187.375 119.464844 C 187.414062 119.519531 187.46875 119.546875 187.539062 119.546875 C 187.609375 119.546875 187.664062 119.519531 187.703125 119.464844 C 189.238281 117.257812 192.921875 113.996094 199.308594 116.390625 C 199.351562 116.410156 199.375 116.4375 199.371094 116.484375 C 199.371094 116.53125 199.347656 116.558594 199.304688 116.574219 C 198.246094 116.882812 194.515625 118.253906 194.027344 122.363281 C 194.023438 122.394531 194.035156 122.417969 194.066406 122.425781 C 194.097656 122.4375 194.121094 122.429688 194.136719 122.398438 C 194.484375 121.703125 194.933594 121.082031 195.480469 120.53125 C 196.027344 119.980469 196.648438 119.53125 197.339844 119.175781 C 198.03125 118.824219 198.757812 118.585938 199.527344 118.464844 C 200.292969 118.34375 201.0625 118.34375 201.828125 118.464844 C 201.910156 118.472656 201.9375 118.515625 201.90625 118.589844 C 200.910156 121.871094 200.710938 125.199219 201.3125 128.574219 C 201.320312 128.617188 201.304688 128.652344 201.261719 128.671875 C 199.832031 129.453125 198.617188 130.488281 197.621094 131.777344 C 197.589844 131.816406 197.546875 131.824219 197.503906 131.800781 C 197.457031 131.78125 197.441406 131.742188 197.453125 131.691406 C 197.90625 130.113281 198.773438 128.804688 200.050781 127.769531 C 200.074219 127.75 200.078125 127.730469 200.066406 127.703125 C 200.058594 127.675781 200.039062 127.667969 200.011719 127.671875 C 198.113281 127.976562 193.425781 131.550781 194.863281 133.101562 C 194.863281 133.101562 190.085938 140.902344 187.703125 137.246094 C 187.664062 137.1875 187.609375 137.15625 187.535156 137.15625 C 187.464844 137.15625 187.410156 137.1875 187.371094 137.246094 C 184.984375 140.902344 180.207031 133.101562 180.207031 133.101562 C 181.648438 131.546875 176.957031 127.976562 175.0625 127.671875 C 175.035156 127.667969 175.015625 127.679688 175.003906 127.703125 C 174.992188 127.730469 175 127.75 175.019531 127.769531 C 176.300781 128.804688 177.164062 130.113281 177.621094 131.691406 C 177.632812 131.742188 177.617188 131.78125 177.570312 131.800781 C 177.523438 131.824219 177.484375 131.816406 177.453125 131.777344 C 176.457031 130.488281 175.242188 129.453125 173.808594 128.671875 C 173.769531 128.652344 173.753906 128.617188 173.757812 128.574219 C 174.359375 125.199219 174.164062 121.871094 173.167969 118.589844 C 173.136719 118.511719 173.160156 118.46875 173.246094 118.464844 Z M 170.527344 138.765625 C 170.515625 138.738281 170.519531 138.71875 170.539062 138.699219 C 170.558594 138.683594 170.582031 138.679688 170.605469 138.691406 C 171.261719 139 171.949219 139.101562 172.664062 138.996094 C 172.683594 138.992188 172.699219 138.980469 172.707031 138.960938 C 172.714844 138.941406 172.710938 138.925781 172.695312 138.910156 C 171.929688 137.941406 171.894531 135.863281 172.191406 134.683594 C 172.203125 134.632812 172.234375 134.609375 172.289062 134.613281 C 172.339844 134.617188 172.367188 134.640625 172.375 134.695312 C 173.148438 140.132812 176.851562 140.722656 177.929688 140.773438 C 177.960938 140.777344 177.980469 140.796875 177.984375 140.828125 C 177.988281 140.859375 177.976562 140.878906 177.949219 140.894531 C 173.792969 142.542969 171.054688 139.820312 170.527344 138.765625 Z M 126.460938 110.113281 C 127.191406 107.738281 127.644531 105.308594 127.8125 102.832031 C 127.820312 102.699219 127.890625 102.636719 128.023438 102.648438 C 128.542969 102.679688 129.035156 102.816406 129.492188 103.0625 C 129.953125 103.308594 130.339844 103.636719 130.652344 104.050781 L 131.398438 105.71875 C 131.398438 105.71875 133.34375 105.117188 133.792969 105.21875 C 135.113281 105.476562 136.1875 106.136719 137.011719 107.199219 C 137.160156 107.414062 137.667969 108.757812 137.667969 108.757812 C 138.488281 108.507812 139.328125 108.363281 140.1875 108.328125 C 141.894531 109.128906 142.238281 110.039062 142.328125 110.679688 C 142.484375 114.007812 142.308594 117.316406 141.796875 120.609375 C 141.777344 120.746094 141.703125 120.800781 141.566406 120.777344 C 141.042969 120.695312 139.636719 120.390625 139.035156 119.441406 C 139.035156 119.441406 139.175781 114.65625 138.832031 113.019531 C 138.722656 112.484375 137.835938 112.382812 137.765625 112.925781 C 137.65625 114.546875 137.4375 116.152344 137.109375 117.742188 C 136.863281 118.296875 133.753906 117.75 132.789062 115.933594 C 132.773438 115.902344 132.765625 115.867188 132.765625 115.828125 C 132.875 114.296875 132.855469 112.769531 132.703125 111.242188 C 132.683594 111.105469 132.621094 110.992188 132.515625 110.902344 C 132.414062 110.8125 132.292969 110.769531 132.152344 110.769531 C 132.015625 110.769531 131.894531 110.816406 131.792969 110.90625 C 131.6875 110.996094 131.625 111.109375 131.609375 111.246094 C 131.488281 112.492188 131.242188 113.714844 130.871094 114.910156 C 130.847656 114.996094 130.789062 115.042969 130.695312 115.050781 C 129.964844 115.082031 127.183594 114.003906 126.554688 112.664062 C 126.425781 111.816406 126.390625 110.964844 126.460938 110.113281 Z M 123.230469 164.265625 C 122.125 161.898438 122.390625 157.644531 122.554688 155.558594 C 122.550781 155.53125 122.539062 155.515625 122.511719 155.507812 C 122.484375 155.5 122.460938 155.507812 122.441406 155.527344 C 121.355469 157.703125 121.234375 160.722656 121.425781 163.363281 C 121.429688 163.398438 121.414062 163.417969 121.378906 163.425781 C 121.347656 163.433594 121.324219 163.421875 121.3125 163.390625 C 117.472656 152.519531 123.753906 135.59375 125.339844 131.945312 C 125.355469 131.898438 125.390625 131.878906 125.4375 131.898438 C 125.488281 131.914062 125.503906 131.945312 125.492188 131.996094 C 123.945312 139.253906 129.066406 152.445312 128.664062 159.730469 C 128.632812 161.441406 128.183594 163.035156 127.316406 164.511719 C 127.085938 164.863281 126.78125 165.136719 126.402344 165.328125 C 126.023438 165.519531 125.625 165.601562 125.203125 165.578125 C 124.777344 165.550781 124.390625 165.421875 124.039062 165.1875 C 123.6875 164.953125 123.417969 164.644531 123.230469 164.265625 Z M 147.203125 166.199219 C 145.367188 164.328125 143.773438 164.316406 143.1875 164.390625 C 143.15625 164.394531 143.140625 164.414062 143.136719 164.445312 C 143.136719 164.476562 143.152344 164.496094 143.183594 164.503906 C 145.554688 165.292969 147.28125 170.757812 142.949219 170.757812 C 138.835938 170.757812 135.355469 165.832031 134.824219 165.042969 C 134.808594 165.019531 134.789062 165.011719 134.765625 165.019531 C 134.738281 165.023438 134.726562 165.039062 134.722656 165.066406 C 134.1875 167.355469 133.371094 169.542969 132.269531 171.625 C 133.65625 173.167969 135.28125 174.40625 137.136719 175.34375 C 138.992188 176.277344 140.953125 176.84375 143.023438 177.046875 C 143.09375 177.050781 143.089844 177.152344 143.019531 177.160156 C 132.113281 178.460938 128.417969 172.984375 128.417969 172.984375 C 130.355469 169.082031 131.335938 164.957031 131.367188 160.601562 C 141.636719 156.992188 147.203125 164.578125 147.300781 166.164062 C 147.304688 166.21875 147.238281 166.238281 147.203125 166.199219 Z M 148.363281 159.769531 C 159.507812 156.933594 164.214844 163.101562 164.4375 164.316406 C 164.6875 165.679688 163.816406 167.289062 162.078125 166.917969 C 160.839844 166.652344 157.855469 163.816406 155.632812 163.351562 C 155.609375 163.34375 155.589844 163.355469 155.574219 163.378906 C 155.5625 163.402344 155.5625 163.421875 155.582031 163.441406 C 156.261719 164.414062 156.695312 165.484375 156.886719 166.652344 C 157.078125 167.820312 157.003906 168.972656 156.664062 170.109375 C 156.65625 170.132812 156.640625 170.148438 156.613281 170.148438 C 156.585938 170.148438 156.566406 170.132812 156.558594 170.109375 C 155.371094 166.75 152.625 162.378906 148.347656 159.875 C 148.324219 159.863281 148.316406 159.84375 148.320312 159.816406 C 148.324219 159.792969 148.335938 159.777344 148.363281 159.769531 Z M 160.945312 203.570312 C 159.832031 202.972656 155.457031 200.445312 153.320312 196.734375 C 153.300781 196.695312 153.269531 196.683594 153.230469 196.695312 C 153.1875 196.710938 153.167969 196.738281 153.179688 196.78125 C 153.34375 197.886719 154.167969 201.339844 158.21875 206.25 C 158.242188 206.273438 158.242188 206.296875 158.21875 206.324219 C 158.199219 206.351562 158.175781 206.355469 158.144531 206.335938 C 156.4375 205.140625 148.675781 199.121094 149.386719 189.140625 C 149.390625 189.078125 149.480469 189.0625 149.5 189.117188 C 149.925781 190.351562 150.636719 191.382812 151.640625 192.21875 C 151.660156 192.234375 151.683594 192.238281 151.707031 192.222656 C 151.730469 192.210938 151.738281 192.191406 151.734375 192.164062 C 151.5625 191.375 150.8125 187.570312 151.6875 184.40625 C 151.703125 184.378906 151.722656 184.371094 151.75 184.371094 C 151.78125 184.375 151.796875 184.390625 151.804688 184.417969 C 152.695312 191.148438 155.03125 196.621094 161.007812 203.476562 C 161.035156 203.5 161.039062 203.523438 161.019531 203.554688 C 161 203.582031 160.972656 203.585938 160.945312 203.570312 Z M 164.515625 190.578125 C 165.585938 190.878906 170.734375 192.207031 175 191.113281 C 175.027344 191.101562 175.039062 191.078125 175.035156 191.050781 C 175.035156 191.019531 175.019531 191 174.988281 190.996094 C 173.203125 190.890625 165.550781 190.15625 161.855469 185.242188 C 161.839844 185.222656 161.835938 185.203125 161.851562 185.179688 C 161.863281 185.15625 161.882812 185.148438 161.90625 185.152344 C 164.535156 185.550781 167.160156 185.554688 169.785156 185.160156 C 169.8125 185.15625 169.828125 185.140625 169.832031 185.113281 C 169.835938 185.085938 169.828125 185.0625 169.800781 185.050781 C 168.820312 184.582031 163.738281 182.011719 163.570312 178.996094 C 163.378906 175.75 166.726562 174.625 170.28125 176.097656 C 170.304688 176.105469 170.324219 176.101562 170.34375 176.085938 C 170.363281 176.070312 170.367188 176.050781 170.363281 176.027344 C 170.15625 175.402344 169.816406 174.859375 169.34375 174.402344 C 169.324219 174.386719 169.320312 174.367188 169.328125 174.34375 C 169.332031 174.320312 169.347656 174.308594 169.375 174.308594 C 171.289062 174.183594 173.097656 174.566406 174.796875 175.457031 C 174.820312 175.46875 174.839844 175.464844 174.859375 175.449219 C 174.878906 175.429688 174.882812 175.410156 174.875 175.386719 C 174.53125 174.625 172.644531 170.953125 167.285156 169.261719 C 167.257812 169.257812 167.242188 169.238281 167.242188 169.210938 C 167.242188 169.183594 167.257812 169.164062 167.285156 169.160156 C 168.15625 168.9375 172.214844 168.21875 179.046875 171.601562 C 179.085938 171.625 179.121094 171.617188 179.152344 171.582031 C 179.183594 171.550781 179.183594 171.515625 179.160156 171.476562 C 178.476562 170.492188 177.613281 169.691406 176.574219 169.082031 C 176.550781 169.066406 176.539062 169.046875 176.546875 169.015625 C 176.554688 168.988281 176.574219 168.972656 176.605469 168.976562 C 179.191406 169.121094 183.542969 170.605469 184.746094 173.488281 C 184.746094 173.488281 184.785156 173.636719 184.851562 173.902344 C 184.863281 173.945312 184.847656 173.976562 184.8125 174 C 184.777344 174.023438 184.742188 174.019531 184.710938 173.992188 C 184.050781 173.441406 183.292969 173.117188 182.4375 173.023438 C 182.410156 173.023438 182.386719 173.035156 182.375 173.0625 C 182.363281 173.085938 182.367188 173.109375 182.390625 173.132812 C 183.007812 173.625 184.949219 175.460938 185.351562 179.460938 C 185.351562 179.488281 185.339844 179.507812 185.316406 179.519531 C 185.292969 179.53125 185.273438 179.527344 185.25 179.515625 C 184.539062 178.765625 183.664062 178.398438 182.628906 178.414062 C 182.597656 178.417969 182.582031 178.433594 182.574219 178.464844 C 182.570312 178.496094 182.578125 178.515625 182.605469 178.53125 C 183.804688 179.09375 186.054688 181.359375 185.277344 184.296875 C 185.199219 184.777344 184.992188 185.195312 184.65625 185.550781 C 184.324219 185.910156 183.921875 186.144531 183.449219 186.261719 C 183.394531 186.289062 183.390625 186.320312 183.4375 186.359375 C 183.703125 186.53125 183.996094 186.628906 184.3125 186.652344 C 184.628906 186.671875 184.933594 186.617188 185.222656 186.480469 C 185.273438 186.453125 185.304688 186.46875 185.3125 186.527344 C 185.679688 190.515625 181.894531 194.050781 174.746094 193.675781 C 167.625 193.304688 165.050781 191.257812 164.457031 190.675781 C 164.421875 190.65625 164.417969 190.628906 164.4375 190.59375 C 164.457031 190.5625 164.480469 190.554688 164.515625 190.574219 Z M 185.058594 211.328125 C 184.625 211.945312 174.148438 215.488281 175.582031 205.167969 C 175.589844 205.140625 175.578125 205.121094 175.550781 205.109375 C 175.523438 205.097656 175.5 205.101562 175.484375 205.125 C 175.097656 205.671875 174.804688 206.265625 174.605469 206.902344 C 174.402344 207.539062 174.304688 208.191406 174.304688 208.855469 C 174.304688 209.523438 174.402344 210.175781 174.605469 210.8125 C 174.804688 211.449219 175.097656 212.039062 175.484375 212.585938 C 175.496094 212.609375 175.5 212.628906 175.484375 212.648438 C 175.472656 212.671875 175.453125 212.679688 175.429688 212.675781 C 174.0625 212.34375 169.398438 207.054688 174.3125 200.648438 C 174.332031 200.617188 174.335938 200.585938 174.316406 200.554688 C 174.300781 200.519531 174.269531 200.507812 174.234375 200.511719 C 171.171875 200.789062 168.945312 199.394531 167.910156 197.832031 C 167.894531 197.804688 167.898438 197.785156 167.917969 197.761719 C 167.9375 197.742188 167.960938 197.738281 167.984375 197.753906 C 171.203125 199.527344 176.691406 197.996094 179.988281 196.433594 C 180.839844 196.019531 181.730469 195.910156 182.65625 196.109375 C 183.902344 196.386719 185.519531 197.039062 186.230469 198.570312 C 187.042969 205.875 185.492188 210.707031 185.054688 211.324219 Z M 183.738281 164.898438 C 183.613281 164.714844 183.617188 164.535156 183.753906 164.359375 C 183.894531 164.183594 184.066406 164.136719 184.277344 164.21875 C 185.324219 164.714844 186.386719 164.75 187.464844 164.324219 C 187.515625 164.308594 187.566406 164.308594 187.613281 164.324219 C 188.695312 164.75 189.757812 164.714844 190.804688 164.21875 C 191.015625 164.136719 191.1875 164.183594 191.324219 164.359375 C 191.464844 164.535156 191.46875 164.714844 191.339844 164.898438 C 190.886719 165.597656 189.859375 166.359375 187.539062 166.359375 C 185.222656 166.359375 184.195312 165.597656 183.738281 164.898438 Z M 200.84375 200.507812 C 200.804688 200.503906 200.777344 200.519531 200.757812 200.550781 C 200.742188 200.582031 200.742188 200.613281 200.765625 200.644531 C 205.679688 207.054688 201.011719 212.34375 199.648438 212.671875 C 199.625 212.675781 199.605469 212.667969 199.59375 212.648438 C 199.578125 212.625 199.578125 212.605469 199.59375 212.585938 C 199.976562 212.039062 200.269531 211.445312 200.472656 210.808594 C 200.671875 210.175781 200.773438 209.523438 200.773438 208.855469 C 200.773438 208.1875 200.671875 207.535156 200.472656 206.898438 C 200.269531 206.261719 199.976562 205.671875 199.59375 205.125 C 199.578125 205.101562 199.554688 205.09375 199.527344 205.105469 C 199.5 205.117188 199.488281 205.136719 199.496094 205.167969 C 200.929688 215.488281 190.453125 211.941406 190.019531 211.324219 C 189.589844 210.710938 188.03125 205.875 188.839844 198.566406 C 189.554688 197.035156 191.171875 196.386719 192.417969 196.105469 C 193.34375 195.910156 194.234375 196.019531 195.085938 196.433594 C 198.382812 197.996094 203.871094 199.523438 207.085938 197.75 C 207.113281 197.734375 207.136719 197.738281 207.15625 197.761719 C 207.175781 197.78125 207.179688 197.804688 207.164062 197.828125 C 206.132812 199.394531 203.902344 200.785156 200.84375 200.507812 Z M 213.226562 185.238281 C 209.53125 190.15625 201.878906 190.886719 200.09375 190.992188 C 200.0625 191 200.046875 191.015625 200.042969 191.046875 C 200.042969 191.078125 200.054688 191.097656 200.082031 191.109375 C 204.34375 192.203125 209.492188 190.875 210.566406 190.574219 C 210.59375 190.566406 210.617188 190.574219 210.628906 190.597656 C 210.644531 190.625 210.644531 190.648438 210.625 190.667969 C 210.027344 191.253906 207.457031 193.300781 200.332031 193.671875 C 193.183594 194.042969 189.402344 190.507812 189.765625 186.519531 C 189.777344 186.460938 189.804688 186.445312 189.859375 186.472656 C 190.144531 186.609375 190.449219 186.667969 190.765625 186.644531 C 191.085938 186.625 191.375 186.527344 191.644531 186.351562 C 191.6875 186.3125 191.683594 186.28125 191.628906 186.253906 C 191.15625 186.140625 190.753906 185.902344 190.421875 185.546875 C 190.089844 185.1875 189.882812 184.769531 189.800781 184.289062 C 189.019531 181.355469 191.273438 179.089844 192.472656 178.527344 C 192.5 178.511719 192.507812 178.488281 192.503906 178.460938 C 192.5 178.429688 192.480469 178.414062 192.453125 178.410156 C 191.417969 178.394531 190.542969 178.757812 189.828125 179.507812 C 189.808594 179.523438 189.785156 179.523438 189.761719 179.511719 C 189.742188 179.5 189.730469 179.480469 189.730469 179.457031 C 190.128906 175.457031 192.070312 173.617188 192.691406 173.125 C 192.710938 173.105469 192.714844 173.082031 192.703125 173.054688 C 192.691406 173.027344 192.671875 173.015625 192.640625 173.019531 C 191.785156 173.113281 191.027344 173.433594 190.371094 173.988281 C 190.335938 174.015625 190.304688 174.019531 190.265625 173.996094 C 190.230469 173.972656 190.214844 173.941406 190.226562 173.898438 C 190.292969 173.632812 190.335938 173.480469 190.335938 173.480469 C 191.539062 170.601562 195.886719 169.113281 198.472656 168.96875 C 198.503906 168.96875 198.523438 168.980469 198.53125 169.007812 C 198.539062 169.039062 198.53125 169.0625 198.503906 169.074219 C 197.464844 169.683594 196.605469 170.484375 195.917969 171.472656 C 195.894531 171.511719 195.898438 171.542969 195.925781 171.578125 C 195.957031 171.609375 195.992188 171.617188 196.03125 171.597656 C 202.863281 168.214844 206.921875 168.933594 207.796875 169.152344 C 207.820312 169.160156 207.835938 169.179688 207.835938 169.207031 C 207.835938 169.234375 207.820312 169.25 207.796875 169.257812 C 202.433594 170.949219 200.546875 174.617188 200.207031 175.378906 C 200.195312 175.40625 200.199219 175.425781 200.21875 175.441406 C 200.238281 175.460938 200.257812 175.460938 200.28125 175.449219 C 201.980469 174.5625 203.789062 174.179688 205.703125 174.300781 C 205.730469 174.304688 205.746094 174.316406 205.75 174.339844 C 205.757812 174.363281 205.753906 174.382812 205.734375 174.398438 C 205.261719 174.855469 204.921875 175.398438 204.714844 176.019531 C 204.710938 176.042969 204.71875 176.0625 204.738281 176.078125 C 204.753906 176.09375 204.773438 176.101562 204.796875 176.09375 C 208.355469 174.617188 211.699219 175.742188 211.511719 178.992188 C 211.339844 182.007812 206.257812 184.578125 205.277344 185.046875 C 205.25 185.058594 205.242188 185.078125 205.246094 185.105469 C 205.25 185.132812 205.265625 185.148438 205.292969 185.15625 C 207.917969 185.550781 210.546875 185.546875 213.171875 185.144531 C 213.199219 185.140625 213.222656 185.148438 213.234375 185.171875 C 213.25 185.195312 213.246094 185.21875 213.226562 185.242188 Z M 216.933594 206.335938 C 216.878906 206.371094 216.820312 206.300781 216.863281 206.246094 C 220.910156 201.339844 221.738281 197.886719 221.902344 196.777344 C 221.914062 196.734375 221.894531 196.707031 221.851562 196.691406 C 221.8125 196.679688 221.78125 196.691406 221.761719 196.734375 C 219.625 200.4375 215.25 202.96875 214.136719 203.570312 C 214.105469 203.585938 214.082031 203.578125 214.0625 203.550781 C 214.046875 203.523438 214.046875 203.5 214.074219 203.476562 C 220.050781 196.621094 222.386719 191.152344 223.277344 184.417969 C 223.28125 184.390625 223.300781 184.375 223.328125 184.371094 C 223.359375 184.367188 223.378906 184.378906 223.390625 184.40625 C 224.265625 187.566406 223.519531 191.371094 223.34375 192.164062 C 223.34375 192.191406 223.355469 192.207031 223.375 192.21875 C 223.398438 192.230469 223.417969 192.230469 223.441406 192.21875 C 224.441406 191.382812 225.15625 190.347656 225.582031 189.117188 C 225.601562 189.0625 225.691406 189.082031 225.695312 189.140625 C 226.402344 199.117188 218.644531 205.136719 216.933594 206.335938 Z M 226.734375 159.875 C 222.457031 162.378906 219.707031 166.75 218.523438 170.109375 C 218.515625 170.132812 218.496094 170.148438 218.46875 170.148438 C 218.441406 170.148438 218.421875 170.132812 218.414062 170.109375 C 218.078125 168.972656 218.003906 167.820312 218.195312 166.652344 C 218.386719 165.484375 218.820312 164.414062 219.5 163.441406 C 219.519531 163.421875 219.519531 163.402344 219.507812 163.378906 C 219.492188 163.355469 219.472656 163.34375 219.449219 163.351562 C 217.222656 163.816406 214.238281 166.648438 213.003906 166.917969 C 211.265625 167.289062 210.394531 165.679688 210.644531 164.316406 C 210.867188 163.101562 215.570312 156.929688 226.71875 159.769531 C 226.742188 159.777344 226.757812 159.792969 226.761719 159.816406 C 226.765625 159.84375 226.757812 159.863281 226.734375 159.875 Z M 232.0625 177.160156 C 231.992188 177.152344 231.988281 177.050781 232.058594 177.042969 C 234.128906 176.84375 236.089844 176.277344 237.945312 175.339844 C 239.800781 174.40625 241.425781 173.167969 242.8125 171.625 C 241.710938 169.542969 240.894531 167.355469 240.359375 165.0625 C 240.355469 165.039062 240.339844 165.023438 240.316406 165.019531 C 240.292969 165.011719 240.273438 165.019531 240.257812 165.039062 C 239.726562 165.832031 236.242188 170.753906 232.128906 170.753906 C 227.800781 170.753906 229.527344 165.292969 231.898438 164.5 C 231.929688 164.492188 231.941406 164.476562 231.941406 164.445312 C 231.9375 164.414062 231.921875 164.394531 231.894531 164.390625 C 231.308594 164.316406 229.714844 164.328125 227.878906 166.199219 C 227.859375 166.21875 227.839844 166.226562 227.816406 166.214844 C 227.792969 166.207031 227.78125 166.191406 227.777344 166.164062 C 227.878906 164.578125 233.445312 156.992188 243.714844 160.601562 C 243.746094 164.953125 244.726562 169.082031 246.664062 172.984375 C 246.664062 172.984375 242.964844 178.460938 232.0625 177.160156 Z M 253.765625 163.386719 C 253.753906 163.421875 253.734375 163.433594 253.699219 163.425781 C 253.664062 163.417969 253.648438 163.398438 253.652344 163.363281 C 253.839844 160.722656 253.726562 157.703125 252.636719 155.527344 C 252.621094 155.503906 252.597656 155.496094 252.570312 155.503906 C 252.542969 155.511719 252.527344 155.53125 252.523438 155.558594 C 252.6875 157.644531 252.953125 161.898438 251.847656 164.265625 C 251.664062 164.644531 251.394531 164.949219 251.039062 165.1875 C 250.6875 165.421875 250.300781 165.550781 249.878906 165.574219 C 249.453125 165.601562 249.054688 165.519531 248.675781 165.328125 C 248.296875 165.136719 247.992188 164.863281 247.761719 164.507812 C 246.898438 163.03125 246.449219 161.441406 246.414062 159.730469 C 246.015625 152.445312 251.132812 139.25 249.589844 131.996094 C 249.574219 131.945312 249.589844 131.910156 249.640625 131.894531 C 249.691406 131.878906 249.722656 131.894531 249.742188 131.945312 C 251.324219 135.59375 257.605469 152.519531 253.765625 163.386719 Z M 274.539062 127.261719 C 270.164062 127.671875 263.6875 121.980469 259.1875 113.414062 C 254.691406 104.847656 253.675781 96.296875 256.503906 92.945312 C 256.523438 92.921875 256.546875 92.917969 256.574219 92.929688 C 256.601562 92.941406 256.613281 92.960938 256.609375 92.992188 C 255.777344 98.230469 257.222656 105.433594 260.9375 112.503906 C 264.652344 119.570312 269.769531 124.851562 274.5625 127.152344 C 274.589844 127.167969 274.597656 127.1875 274.59375 127.214844 C 274.585938 127.246094 274.570312 127.261719 274.539062 127.261719 Z M 285.746094 122.050781 C 281.871094 124.074219 274.578125 117.808594 269.449219 108.050781 C 264.320312 98.296875 263.304688 88.746094 267.179688 86.71875 C 271.054688 84.695312 278.347656 90.960938 283.476562 100.71875 C 288.601562 110.476562 289.617188 120.023438 285.746094 122.050781 Z M 146.128906 121.171875 C 146.09375 121.175781 146.070312 121.195312 146.058594 121.226562 C 146.046875 121.257812 146.050781 121.285156 146.078125 121.308594 C 147.191406 122.417969 146.785156 125.691406 145.042969 129.007812 C 143.300781 132.324219 140.835938 134.515625 139.289062 134.230469 C 139.253906 134.226562 139.226562 134.238281 139.207031 134.265625 C 139.1875 134.292969 139.1875 134.324219 139.203125 134.351562 C 139.34375 134.636719 139.554688 134.855469 139.832031 135.007812 C 141.398438 135.832031 144.285156 133.429688 146.269531 129.648438 C 148.257812 125.871094 148.597656 122.136719 147.023438 121.316406 C 146.742188 121.175781 146.441406 121.128906 146.128906 121.175781 Z M 235.246094 135.007812 C 235.523438 134.855469 235.734375 134.636719 235.878906 134.351562 C 235.894531 134.320312 235.890625 134.292969 235.871094 134.265625 C 235.851562 134.238281 235.828125 134.226562 235.792969 134.230469 C 234.246094 134.515625 231.78125 132.324219 230.039062 129.007812 C 228.292969 125.691406 227.886719 122.417969 229.003906 121.308594 C 229.027344 121.285156 229.03125 121.257812 229.019531 121.226562 C 229.007812 121.191406 228.984375 121.175781 228.949219 121.171875 C 228.636719 121.125 228.335938 121.175781 228.050781 121.316406 C 226.480469 122.136719 226.820312 125.867188 228.804688 129.648438 C 230.789062 133.429688 233.675781 135.832031 235.246094 135.011719 Z M 107.828125 89.558594 C 107.875 89.585938 107.914062 89.582031 107.949219 89.542969 C 107.984375 89.507812 107.992188 89.46875 107.964844 89.425781 C 107.71875 89.019531 107.390625 88.707031 106.972656 88.484375 C 103.824219 86.835938 97.527344 92.617188 92.910156 101.402344 C 88.296875 110.1875 87.109375 118.640625 90.261719 120.289062 C 90.679688 120.5 91.128906 120.59375 91.597656 120.5625 C 91.648438 120.558594 91.679688 120.535156 91.6875 120.484375 C 91.699219 120.4375 91.683594 120.402344 91.636719 120.378906 C 88.871094 118.933594 90.257812 110.859375 94.726562 102.351562 C 99.195312 93.84375 105.0625 88.113281 107.828125 89.558594 Z M 274.972656 99.546875 C 274.097656 100.003906 274.429688 102.347656 275.707031 104.78125 C 276.984375 107.214844 278.730469 108.816406 279.605469 108.359375 C 280.476562 107.902344 280.148438 105.5625 278.871094 103.128906 C 277.589844 100.695312 275.84375 99.089844 274.972656 99.546875 Z M 282.171875 101.402344 C 277.554688 92.617188 271.257812 86.835938 268.105469 88.484375 C 267.691406 88.707031 267.363281 89.019531 267.117188 89.421875 C 267.089844 89.464844 267.09375 89.503906 267.128906 89.542969 C 267.164062 89.578125 267.203125 89.585938 267.246094 89.558594 C 270.015625 88.113281 275.882812 93.839844 280.355469 102.351562 C 284.828125 110.863281 286.210938 118.933594 283.445312 120.371094 C 283.398438 120.394531 283.378906 120.429688 283.390625 120.480469 C 283.398438 120.53125 283.429688 120.558594 283.480469 120.558594 C 283.953125 120.589844 284.398438 120.5 284.820312 120.285156 C 287.972656 118.640625 286.785156 110.183594 282.167969 101.402344 Z M 100.109375 99.546875 C 99.234375 99.089844 97.488281 100.695312 96.210938 103.128906 C 94.933594 105.5625 94.601562 107.90625 95.476562 108.359375 C 96.351562 108.816406 98.097656 107.214844 99.375 104.78125 C 100.652344 102.351562 100.980469 100.003906 100.109375 99.546875 Z M 100.109375 99.546875 " fill-opacity="1" fill-rule="evenodd"/></g><path fill="#ffffff" d="M 204.222656 93.960938 C 203.972656 93.960938 203.730469 93.992188 203.492188 94.050781 C 203.253906 94.113281 203.027344 94.203125 202.808594 94.320312 C 202.59375 94.4375 202.394531 94.578125 202.214844 94.746094 C 202.03125 94.914062 201.875 95.101562 201.742188 95.304688 C 201.605469 95.511719 201.5 95.730469 201.421875 95.964844 C 201.34375 96.199219 201.292969 96.4375 201.273438 96.683594 C 201.253906 96.925781 201.265625 97.171875 201.308594 97.414062 C 201.351562 97.65625 201.421875 97.890625 201.523438 98.113281 C 201.578125 98.234375 201.554688 98.335938 201.457031 98.421875 C 197.675781 101.722656 189.964844 99.867188 189.089844 93.785156 C 189.070312 93.667969 189.113281 93.578125 189.214844 93.519531 C 189.421875 93.398438 189.613281 93.257812 189.789062 93.09375 C 189.964844 92.929688 190.121094 92.75 190.257812 92.554688 C 190.394531 92.355469 190.507812 92.144531 190.597656 91.925781 C 190.6875 91.703125 190.75 91.472656 190.792969 91.238281 C 190.832031 91.003906 190.847656 90.765625 190.835938 90.527344 C 190.824219 90.289062 190.785156 90.050781 190.722656 89.820312 C 190.660156 89.589844 190.570312 89.371094 190.460938 89.15625 C 190.347656 88.945312 190.214844 88.75 190.058594 88.566406 C 189.90625 88.382812 189.734375 88.21875 189.542969 88.074219 C 189.351562 87.929688 189.148438 87.804688 188.929688 87.703125 C 188.710938 87.605469 188.484375 87.527344 188.25 87.476562 C 188.019531 87.425781 187.78125 87.398438 187.539062 87.398438 C 187.300781 87.398438 187.0625 87.425781 186.828125 87.476562 C 186.59375 87.527344 186.371094 87.605469 186.152344 87.703125 C 185.933594 87.804688 185.730469 87.929688 185.539062 88.074219 C 185.347656 88.21875 185.175781 88.382812 185.019531 88.566406 C 184.867188 88.75 184.734375 88.945312 184.621094 89.15625 C 184.511719 89.371094 184.421875 89.589844 184.359375 89.820312 C 184.296875 90.050781 184.257812 90.289062 184.246094 90.527344 C 184.234375 90.765625 184.25 91.003906 184.289062 91.238281 C 184.328125 91.472656 184.394531 91.703125 184.484375 91.925781 C 184.574219 92.144531 184.6875 92.355469 184.824219 92.554688 C 184.960938 92.75 185.117188 92.929688 185.292969 93.09375 C 185.46875 93.257812 185.65625 93.398438 185.863281 93.519531 C 185.96875 93.578125 186.007812 93.667969 185.992188 93.785156 C 185.113281 99.867188 177.40625 101.722656 173.625 98.421875 C 173.523438 98.335938 173.503906 98.234375 173.558594 98.113281 C 173.644531 97.921875 173.710938 97.722656 173.753906 97.515625 C 173.796875 97.308594 173.816406 97.097656 173.816406 96.886719 C 173.8125 96.675781 173.789062 96.46875 173.742188 96.261719 C 173.699219 96.058594 173.628906 95.859375 173.539062 95.667969 C 173.453125 95.476562 173.34375 95.296875 173.214844 95.128906 C 173.085938 94.960938 172.941406 94.804688 172.78125 94.667969 C 172.621094 94.53125 172.449219 94.414062 172.261719 94.3125 C 172.074219 94.210938 171.878906 94.132812 171.675781 94.074219 C 171.472656 94.015625 171.265625 93.980469 171.054688 93.964844 C 170.84375 93.953125 170.632812 93.960938 170.425781 93.992188 C 170.214844 94.023438 170.011719 94.074219 169.8125 94.148438 C 169.617188 94.222656 169.429688 94.320312 169.25 94.433594 C 169.074219 94.546875 168.910156 94.679688 168.761719 94.832031 C 168.609375 94.980469 168.480469 95.144531 168.367188 95.320312 C 168.25 95.5 168.15625 95.6875 168.085938 95.886719 C 168.011719 96.082031 167.960938 96.289062 167.929688 96.496094 C 167.898438 96.707031 167.894531 96.914062 167.910156 97.125 C 167.925781 97.335938 167.960938 97.542969 168.023438 97.746094 C 168.082031 97.949219 168.164062 98.140625 168.265625 98.328125 C 168.367188 98.511719 168.484375 98.683594 168.625 98.84375 C 168.761719 99.003906 168.917969 99.144531 169.085938 99.273438 C 169.257812 99.398438 169.4375 99.503906 169.628906 99.59375 C 169.824219 99.679688 170.023438 99.746094 170.230469 99.792969 C 170.4375 99.835938 170.644531 99.859375 170.855469 99.859375 C 170.988281 99.859375 171.121094 99.851562 171.25 99.835938 C 171.359375 99.816406 171.445312 99.855469 171.503906 99.949219 L 175.847656 106.460938 C 175.894531 106.523438 175.90625 106.589844 175.886719 106.664062 C 175.871094 106.738281 175.832031 106.796875 175.765625 106.835938 C 175.480469 107.023438 175.296875 107.285156 175.210938 107.613281 C 175.125 107.941406 175.160156 108.261719 175.316406 108.5625 C 175.46875 108.867188 175.707031 109.082031 176.023438 109.203125 C 176.34375 109.328125 176.664062 109.332031 176.984375 109.210938 C 178.667969 108.570312 180.398438 108.082031 182.171875 107.753906 C 183.945312 107.429688 185.734375 107.265625 187.539062 107.265625 C 189.34375 107.265625 191.132812 107.429688 192.90625 107.753906 C 194.679688 108.082031 196.410156 108.570312 198.09375 109.210938 C 198.414062 109.332031 198.734375 109.328125 199.050781 109.203125 C 199.371094 109.082031 199.605469 108.867188 199.761719 108.5625 C 199.917969 108.261719 199.953125 107.941406 199.867188 107.613281 C 199.78125 107.285156 199.59375 107.023438 199.308594 106.835938 C 199.246094 106.792969 199.207031 106.738281 199.1875 106.664062 C 199.171875 106.589844 199.183594 106.523438 199.226562 106.460938 L 203.570312 99.945312 C 203.628906 99.851562 203.714844 99.8125 203.824219 99.832031 C 203.957031 99.847656 204.085938 99.855469 204.21875 99.855469 C 204.609375 99.855469 204.988281 99.78125 205.351562 99.632812 C 205.714844 99.480469 206.03125 99.269531 206.308594 98.992188 C 206.585938 98.714844 206.800781 98.398438 206.949219 98.035156 C 207.101562 97.675781 207.175781 97.296875 207.175781 96.90625 C 207.175781 96.515625 207.101562 96.140625 206.949219 95.777344 C 206.800781 95.417969 206.585938 95.097656 206.308594 94.820312 C 206.03125 94.546875 205.714844 94.332031 205.351562 94.183594 C 204.988281 94.03125 204.609375 93.957031 204.21875 93.957031 Z M 204.222656 93.960938 " fill-opacity="1" fill-rule="evenodd"/><g clip-path="url(#0e4b6212d1)"><path fill="#ffffff" d="M 94.820312 183.316406 C 94.867188 183.253906 94.933594 183.21875 95.011719 183.207031 C 95.09375 183.199219 95.164062 183.21875 95.226562 183.265625 C 95.988281 183.691406 97.011719 184.339844 98.261719 185.1875 C 99.539062 186.007812 101.097656 186.964844 102.84375 188.128906 C 103.707031 188.722656 104.675781 189.285156 105.6875 189.898438 L 108.871094 191.863281 C 109.996094 192.527344 111.203125 193.179688 112.4375 193.894531 L 114.328125 194.980469 C 114.972656 195.34375 115.652344 195.667969 116.332031 196.03125 C 129.621094 203.144531 143.648438 208.230469 158.40625 211.289062 C 168.011719 213.265625 177.722656 214.265625 187.53125 214.289062 C 197.339844 214.265625 207.046875 213.265625 216.652344 211.289062 C 231.414062 208.230469 245.4375 203.144531 258.730469 196.03125 C 259.40625 195.671875 260.089844 195.34375 260.734375 194.980469 L 262.625 193.894531 C 263.855469 193.179688 265.0625 192.527344 266.1875 191.863281 L 269.375 189.898438 C 270.386719 189.285156 271.355469 188.722656 272.21875 188.128906 C 273.964844 186.964844 275.523438 186.011719 276.796875 185.1875 C 278.046875 184.335938 279.066406 183.691406 279.828125 183.265625 C 279.890625 183.21875 279.964844 183.199219 280.042969 183.207031 C 280.121094 183.21875 280.1875 183.253906 280.238281 183.316406 C 280.304688 183.492188 280.261719 183.632812 280.101562 183.734375 C 273.625 189.054688 266.742188 193.78125 259.457031 197.917969 C 252.167969 202.050781 244.582031 205.53125 236.695312 208.355469 C 228.804688 211.171875 220.730469 213.296875 212.476562 214.726562 C 204.222656 216.15625 195.90625 216.875 187.527344 216.875 C 179.148438 216.875 170.832031 216.15625 162.578125 214.726562 C 154.324219 213.296875 146.25 211.171875 138.359375 208.355469 C 130.472656 205.53125 122.886719 202.050781 115.601562 197.917969 C 108.3125 193.78125 101.429688 189.054688 94.957031 183.734375 C 94.792969 183.632812 94.75 183.492188 94.820312 183.316406 Z M 94.820312 183.316406 " fill-opacity="1" fill-rule="evenodd"/></g><g clip-path="url(#305b2c73cf)"><path fill="#ffffff" d="M 314.96875 225.53125 C 315.078125 225.621094 315.03125 225.824219 314.855469 226.007812 C 314.03125 226.867188 312.832031 228.023438 311.292969 229.445312 C 309.730469 230.835938 307.765625 232.425781 305.5 234.269531 C 304.375 235.207031 303.121094 236.121094 301.789062 237.097656 L 297.566406 240.160156 C 296.070312 241.203125 294.453125 242.234375 292.785156 243.332031 L 290.222656 245 C 289.347656 245.558594 288.425781 246.078125 287.5 246.628906 C 279.15625 251.648438 270.460938 255.964844 261.417969 259.574219 C 250.78125 263.855469 239.84375 267.152344 228.617188 269.46875 C 215.0625 272.257812 201.367188 273.664062 187.527344 273.6875 C 173.691406 273.664062 159.996094 272.257812 146.441406 269.46875 C 135.210938 267.152344 124.277344 263.855469 113.636719 259.574219 C 104.59375 255.964844 95.902344 251.648438 87.554688 246.628906 C 86.632812 246.074219 85.710938 245.554688 84.832031 244.996094 L 82.273438 243.332031 C 80.605469 242.234375 78.992188 241.203125 77.492188 240.164062 L 73.269531 237.097656 C 71.9375 236.125 70.679688 235.207031 69.558594 234.273438 C 67.292969 232.429688 65.332031 230.839844 63.769531 229.445312 C 62.226562 228.023438 61.027344 226.867188 60.207031 226.011719 C 60.03125 225.824219 59.980469 225.621094 60.089844 225.53125 C 60.199219 225.445312 60.4375 225.503906 60.640625 225.671875 C 69.519531 232.960938 78.953125 239.441406 88.945312 245.105469 C 98.9375 250.773438 109.339844 255.542969 120.152344 259.414062 C 130.964844 263.277344 142.03125 266.1875 153.34375 268.148438 C 164.65625 270.109375 176.054688 271.09375 187.535156 271.097656 C 199.015625 271.09375 210.414062 270.109375 221.726562 268.148438 C 233.042969 266.1875 244.105469 263.277344 254.921875 259.414062 C 265.730469 255.542969 276.132812 250.773438 286.125 245.105469 C 296.117188 239.441406 305.550781 232.960938 314.429688 225.671875 C 314.625 225.503906 314.859375 225.445312 314.96875 225.53125 Z M 314.96875 225.53125 " fill-opacity="1" fill-rule="evenodd"/></g><g clip-path="url(#001607b5f5)"><path fill="#ffffff" d="M 175.101562 283.738281 C 175.066406 283.640625 175 283.59375 174.898438 283.59375 L 172.730469 283.59375 L 171.933594 281.207031 C 171.902344 281.109375 171.835938 281.0625 171.734375 281.0625 C 171.632812 281.0625 171.570312 281.109375 171.535156 281.207031 L 170.738281 283.59375 L 168.570312 283.59375 C 168.46875 283.59375 168.402344 283.640625 168.371094 283.738281 C 168.335938 283.835938 168.363281 283.914062 168.449219 283.976562 L 170.195312 285.230469 L 169.425781 287.535156 C 169.394531 287.628906 169.417969 287.707031 169.5 287.769531 C 169.539062 287.796875 169.582031 287.808594 169.625 287.808594 C 169.671875 287.808594 169.714844 287.796875 169.75 287.769531 L 171.734375 286.339844 L 173.71875 287.769531 C 173.757812 287.796875 173.796875 287.8125 173.84375 287.8125 C 173.914062 287.8125 173.972656 287.78125 174.015625 287.722656 C 174.054688 287.664062 174.066406 287.601562 174.042969 287.535156 L 173.277344 285.234375 L 175.023438 283.976562 C 175.105469 283.917969 175.132812 283.835938 175.101562 283.738281 Z M 175.101562 283.738281 " fill-opacity="1" fill-rule="evenodd"/></g><g clip-path="url(#f85866740e)"><path fill="#ffffff" d="M 206.507812 283.738281 C 206.472656 283.640625 206.40625 283.59375 206.304688 283.59375 L 204.136719 283.59375 L 203.339844 281.207031 C 203.308594 281.109375 203.242188 281.0625 203.140625 281.0625 C 203.039062 281.0625 202.976562 281.109375 202.941406 281.207031 L 202.144531 283.59375 L 199.976562 283.59375 C 199.875 283.59375 199.808594 283.640625 199.777344 283.738281 C 199.742188 283.835938 199.769531 283.914062 199.855469 283.976562 L 201.601562 285.230469 L 200.832031 287.535156 C 200.800781 287.628906 200.824219 287.707031 200.90625 287.769531 C 200.945312 287.796875 200.988281 287.808594 201.03125 287.808594 C 201.078125 287.808594 201.121094 287.796875 201.15625 287.769531 L 203.140625 286.339844 L 205.125 287.769531 C 205.164062 287.796875 205.203125 287.8125 205.25 287.8125 C 205.320312 287.8125 205.378906 287.78125 205.421875 287.722656 C 205.460938 287.664062 205.472656 287.601562 205.449219 287.535156 L 204.683594 285.234375 L 206.429688 283.976562 C 206.511719 283.917969 206.539062 283.835938 206.507812 283.738281 Z M 206.507812 283.738281 " fill-opacity="1" fill-rule="evenodd"/></g><g clip-path="url(#12d1aad395)"><path fill="#ffffff" d="M 193.023438 285.523438 C 192.96875 285.363281 192.859375 285.28125 192.6875 285.285156 L 189.074219 285.285156 L 187.746094 281.304688 C 187.695312 281.144531 187.582031 281.066406 187.414062 281.066406 C 187.246094 281.066406 187.136719 281.144531 187.082031 281.304688 L 185.757812 285.28125 L 182.140625 285.28125 C 181.972656 285.28125 181.859375 285.363281 181.808594 285.523438 C 181.75 285.6875 181.792969 285.816406 181.933594 285.917969 L 184.847656 288.011719 L 183.566406 291.847656 C 183.511719 292.007812 183.554688 292.140625 183.691406 292.238281 C 183.753906 292.285156 183.824219 292.308594 183.902344 292.308594 C 183.976562 292.308594 184.046875 292.285156 184.109375 292.242188 L 187.417969 289.863281 L 190.722656 292.246094 C 190.785156 292.289062 190.851562 292.3125 190.929688 292.3125 C 191.046875 292.3125 191.144531 292.261719 191.214844 292.164062 C 191.28125 292.070312 191.300781 291.964844 191.261719 291.851562 L 189.984375 288.011719 L 192.894531 285.917969 C 193.035156 285.820312 193.078125 285.6875 193.023438 285.523438 Z M 193.023438 285.523438 " fill-opacity="1" fill-rule="evenodd"/></g><g fill="#ffffff" fill-opacity="1"><g transform="translate(65.348795, 211.232737)"><g><path d="M 1.855469 0.6875 C 1.601562 1.015625 1.632812 1.28125 1.957031 1.535156 L 9.082031 7.117188 C 11.871094 9.304688 14.515625 8.984375 16.703125 6.195312 L 28.589844 -8.96875 C 30.777344 -11.757812 30.480469 -14.4375 27.691406 -16.621094 L 20.566406 -22.207031 C 20.242188 -22.460938 19.953125 -22.398438 19.722656 -22.101562 Z M 8.589844 0.410156 L 21.058594 -15.496094 L 23.789062 -13.355469 C 24.558594 -12.753906 24.648438 -12.011719 24.023438 -11.210938 L 13.4375 2.292969 C 12.808594 3.09375 12.09375 3.152344 11.320312 2.550781 Z M 8.589844 0.410156 "/></g></g></g><g fill="#ffffff" fill-opacity="1"><g transform="translate(86.195853, 226.981879)"><g><path d="M 28.332031 -18.542969 C 27.941406 -18.765625 27.617188 -18.734375 27.28125 -18.449219 L 18.242188 -11.152344 L 19.949219 -22.644531 C 20.027344 -23.078125 19.890625 -23.375 19.496094 -23.597656 L 16.222656 -25.46875 C 15.734375 -25.75 15.335938 -25.585938 15.269531 -25.015625 L 12.925781 -7.027344 L 7.082031 3.183594 C 6.839844 3.609375 6.9375 3.96875 7.363281 4.214844 L 10.503906 6.011719 C 10.929688 6.253906 11.292969 6.15625 11.535156 5.730469 L 17.378906 -4.480469 L 31.699219 -15.617188 C 32.15625 -15.960938 32.097656 -16.386719 31.605469 -16.667969 Z M 28.332031 -18.542969 "/></g></g></g><g fill="#ffffff" fill-opacity="1"><g transform="translate(110.689986, 240.342305)"><g><path d="M 23.496094 -23.21875 C 23.109375 -23.367188 22.851562 -23.226562 22.714844 -22.875 L 16.9375 -8.046875 L 16.726562 -8.128906 L 17.207031 -25.144531 C 17.222656 -25.5 17.066406 -25.722656 16.75 -25.847656 L 13.273438 -27.203125 C 12.921875 -27.339844 12.628906 -27.210938 12.492188 -26.859375 L 1.976562 0.121094 C 1.839844 0.472656 1.96875 0.765625 2.320312 0.902344 L 5.972656 2.328125 C 6.359375 2.476562 6.617188 2.335938 6.753906 1.984375 L 12.558594 -12.910156 L 12.734375 -12.84375 L 12.261719 4.253906 C 12.246094 4.609375 12.402344 4.832031 12.71875 4.957031 L 16.195312 6.3125 C 16.546875 6.449219 16.839844 6.320312 16.976562 5.96875 L 27.492188 -21.011719 C 27.628906 -21.363281 27.5 -21.65625 27.148438 -21.792969 Z M 23.496094 -23.21875 "/></g></g></g><g fill="#ffffff" fill-opacity="1"><g transform="translate(136.255688, 249.792669)"><g><path d="M 19.578125 4.363281 C 20.019531 4.460938 20.21875 4.273438 20.234375 3.851562 L 20.429688 -25.8125 C 20.4375 -26.195312 20.25 -26.394531 19.917969 -26.46875 L 14.804688 -27.605469 C 14.472656 -27.679688 14.21875 -27.582031 14.0625 -27.230469 L 1.648438 -0.289062 C 1.449219 0.0898438 1.582031 0.351562 1.988281 0.441406 L 5.925781 1.320312 C 6.257812 1.394531 6.480469 1.25 6.628906 0.9375 L 8.820312 -4.214844 L 15.371094 -2.757812 L 15.203125 2.847656 C 15.203125 3.195312 15.347656 3.417969 15.679688 3.492188 Z M 15.402344 -7.230469 L 10.691406 -8.28125 L 15.90625 -20.601562 Z M 15.402344 -7.230469 "/></g></g></g><g fill="#ffffff" fill-opacity="1"><g transform="translate(165.3713, 255.75733)"><g><path d="M 19.160156 -29.226562 C 18.710938 -29.25 18.433594 -29.035156 18.296875 -28.589844 L 13.160156 -10.050781 L 9.9375 -29.015625 C 9.847656 -29.476562 9.597656 -29.714844 9.144531 -29.738281 L 4.175781 -29.992188 C 3.683594 -30.015625 3.40625 -29.765625 3.382812 -29.277344 L 1.921875 -0.65625 C 1.894531 -0.167969 2.144531 0.109375 2.636719 0.132812 L 6.101562 0.3125 C 6.589844 0.335938 6.867188 0.0859375 6.890625 -0.402344 L 7.757812 -17.347656 L 8.019531 -17.335938 L 10.878906 -0.125 C 10.96875 0.332031 11.222656 0.574219 11.671875 0.597656 L 13.519531 0.691406 C 13.972656 0.714844 14.246094 0.5 14.382812 0.0546875 L 18.980469 -16.777344 L 19.242188 -16.761719 L 18.378906 0.183594 C 18.351562 0.671875 18.601562 0.949219 19.09375 0.976562 L 22.59375 1.152344 C 23.082031 1.179688 23.359375 0.929688 23.386719 0.4375 L 24.847656 -28.179688 C 24.871094 -28.671875 24.621094 -28.949219 24.132812 -28.972656 Z M 19.160156 -29.226562 "/></g></g></g><g fill="#ffffff" fill-opacity="1"><g transform="translate(198.082614, 256.578989)"><g><path d="M 1.289062 -5.601562 C 1.671875 -2.078125 3.75 -0.40625 7.273438 -0.785156 L 11.472656 -1.242188 C 14.996094 -1.621094 16.667969 -3.699219 16.285156 -7.222656 L 14.210938 -26.417969 C 13.828125 -29.941406 11.75 -31.613281 8.226562 -31.230469 L 4.03125 -30.777344 C 0.503906 -30.394531 -1.167969 -28.320312 -0.785156 -24.792969 Z M 7.835938 -5.738281 C 6.863281 -5.632812 6.285156 -6.066406 6.175781 -7.078125 L 4.300781 -24.398438 C 4.195312 -25.371094 4.664062 -25.953125 5.640625 -26.058594 L 7.8125 -26.292969 C 8.789062 -26.398438 9.371094 -25.929688 9.476562 -24.957031 L 11.347656 -7.636719 C 11.457031 -6.625 10.984375 -6.082031 10.011719 -5.976562 Z M 7.835938 -5.738281 "/></g></g></g><g fill="#ffffff" fill-opacity="1"><g transform="translate(223.490952, 253.180313)"><g/></g></g><g fill="#ffffff" fill-opacity="1"><g transform="translate(239.339928, 249.528635)"><g><path d="M -0.00390625 -5.746094 C 1.160156 -2.402344 3.5625 -1.238281 6.910156 -2.40625 L 11.609375 -4.042969 C 14.921875 -5.195312 16.117188 -7.609375 14.949219 -10.953125 L 11.503906 -20.855469 C 11.367188 -21.246094 11.09375 -21.351562 10.734375 -21.226562 L 4.753906 -19.144531 C 4.363281 -19.007812 4.246094 -18.765625 4.382812 -18.375 L 5.621094 -14.8125 C 5.746094 -14.457031 6 -14.304688 6.390625 -14.441406 L 8.242188 -15.085938 L 9.902344 -10.316406 C 10.238281 -9.355469 9.902344 -8.71875 8.976562 -8.394531 L 6.410156 -7.503906 C 5.484375 -7.179688 4.824219 -7.46875 4.492188 -8.429688 L -1.164062 -24.667969 C -1.484375 -25.59375 -1.195312 -26.253906 -0.234375 -26.589844 L 2.328125 -27.480469 C 3.253906 -27.804688 3.925781 -27.480469 4.25 -26.554688 L 5.191406 -23.847656 C 5.316406 -23.492188 5.570312 -23.339844 5.960938 -23.476562 L 9.519531 -24.714844 C 9.878906 -24.839844 10.015625 -25.128906 9.894531 -25.484375 L 8.601562 -29.1875 C 7.4375 -32.535156 5 -33.683594 1.691406 -32.53125 L -3.011719 -30.894531 C -6.359375 -29.726562 -7.519531 -27.328125 -6.351562 -23.980469 Z M -0.00390625 -5.746094 "/></g></g></g><g fill="#ffffff" fill-opacity="1"><g transform="translate(264.586537, 240.206649)"><g><path d="M -0.363281 -33.859375 C -0.765625 -33.648438 -0.910156 -33.359375 -0.851562 -32.921875 L 0.425781 -21.375 L -8.335938 -29.003906 C -8.660156 -29.300781 -8.980469 -29.347656 -9.382812 -29.136719 L -12.722656 -27.386719 C -13.222656 -27.125 -13.300781 -26.703125 -12.855469 -26.339844 L 1.042969 -14.675781 L 6.5 -4.253906 C 6.726562 -3.820312 7.082031 -3.707031 7.515625 -3.933594 L 10.722656 -5.613281 C 11.15625 -5.839844 11.269531 -6.199219 11.042969 -6.632812 L 5.585938 -17.054688 L 3.914062 -35.121094 C 3.871094 -35.691406 3.476562 -35.871094 2.976562 -35.609375 Z M -0.363281 -33.859375 "/></g></g></g><g fill="#ffffff" fill-opacity="1"><g transform="translate(289.323533, 226.772608)"><g><path d="M -4.074219 -34.710938 C -4.433594 -34.4375 -4.507812 -34.097656 -4.328125 -33.667969 L 3.636719 -16.15625 L -11.011719 -28.628906 C -11.371094 -28.921875 -11.71875 -28.941406 -12.082031 -28.671875 L -16.054688 -25.671875 C -16.445312 -25.378906 -16.5 -25.007812 -16.203125 -24.617188 L 1.050781 -1.738281 C 1.347656 -1.347656 1.714844 -1.292969 2.105469 -1.589844 L 4.878906 -3.679688 C 5.269531 -3.972656 5.320312 -4.34375 5.023438 -4.734375 L -5.191406 -18.28125 L -4.980469 -18.441406 L 8.261719 -7.082031 C 8.625 -6.789062 8.972656 -6.765625 9.332031 -7.039062 L 10.808594 -8.148438 C 11.167969 -8.421875 11.242188 -8.761719 11.0625 -9.191406 L 3.78125 -25.046875 L 3.992188 -25.207031 L 14.207031 -11.660156 C 14.503906 -11.265625 14.871094 -11.214844 15.261719 -11.511719 L 18.0625 -13.621094 C 18.453125 -13.917969 18.507812 -14.285156 18.210938 -14.679688 L 0.957031 -37.558594 C 0.660156 -37.949219 0.292969 -38 -0.0976562 -37.707031 Z M -4.074219 -34.710938 "/></g></g></g></svg>